<svg xmlns="http://www.w3.org/2000/svg" viewBox="0 0 420 420">
  <defs>
    <linearGradient id="bg" x1="0" y1="0" x2="0" y2="1">
      <stop offset="0%" stop-color="#fff6d8"/>
      <stop offset="100%" stop-color="#ffeab1"/>
    </linearGradient>
    <linearGradient id="grass" x1="0" y1="0" x2="0" y2="1">
      <stop offset="0%" stop-color="#8cd64b"/>
      <stop offset="100%" stop-color="#49b43c"/>
    </linearGradient>
    <linearGradient id="flag" x1="0" y1="0" x2="0" y2="1">
      <stop offset="0%" stop-color="#ff7167"/>
      <stop offset="100%" stop-color="#e73a42"/>
    </linearGradient>
  </defs>
  <rect width="420" height="420" rx="34" fill="url(#bg)"/>
  <circle cx="335" cy="76" r="28" fill="#fff4bc"/>
  <circle cx="335" cy="76" r="20" fill="#ffca28"/>
  <rect x="0" y="315" width="420" height="105" rx="26" fill="url(#grass)"/>
  <path d="M70 316c24-50 54-79 83-79 31 0 54 34 85 34 20 0 43-15 58-31 10-10 18-18 28-18 21 0 36 21 49 94z" fill="#80d35f"/>
  <rect x="250" y="112" width="14" height="190" rx="7" fill="#6a4721"/>
  <path d="M257 118l90 24-90 24z" fill="url(#flag)"/>
  <circle cx="120" cy="202" r="58" fill="#fff" opacity="0.35"/>
  <path d="M120 150l15 31 34 5-24 24 6 34-31-16-31 16 6-34-24-24 34-5z" fill="#ffd84d" stroke="#d3a600" stroke-width="8" stroke-linejoin="round"/>
  <path d="M66 354h144" stroke="#2f7c2d" stroke-width="10" stroke-linecap="round" opacity=".45"/>
  <text x="210" y="392" text-anchor="middle" font-family="Trebuchet MS, Arial" font-size="34" font-weight="700" fill="#9b5d00">ARRIVO</text>
</svg>
